<svg id="Capa_1" enable-background="new 0 0 512 512" height="512" viewBox="0 0 512 512" width="512" xmlns="http://www.w3.org/2000/svg"><g><path d="m271 0h-15-15l-30 29.374v134.751l30 41.147 15 7.5 15-7.5 30-43.022v-131.001z" fill="#fff7cc"/><path d="m301 162.25v-131.001l-30-31.249h-15v212.772l15-7.5z" fill="#ffe6b3"/><path d="m121 0v145.272l120 60v-205.272z" fill="#ff641a"/><path d="m391 0h-120v205.272l120-60z" fill="#e63950"/><path d="m421 233.837-88.074 35.237 35.237-88.074h-112.163-112.163l35.237 88.074-88.074-35.237v224.326l88.074-35.237-35.237 89.074h112.163 112.163l-35.237-89.074 88.074 35.237z" fill="#fff261"/><path d="m332.926 422.926 88.074 35.237v-224.326l-88.074 35.237 35.237-88.074h-112.163v331h112.163z" fill="#fabe2c"/><g><circle cx="256" cy="346" fill="#fabe2c" r="105"/><path d="m361 346c0-57.891-47.109-105-105-105v210c57.891 0 105-47.109 105-105z" fill="#ff9100"/><circle cx="256" cy="346" fill="#fff261" r="75"/><path d="m331 346c0-41.422-33.578-75-75-75v150c41.422 0 75-33.58 75-75z" fill="#fabe2c"/><circle cx="256" cy="346" fill="#fabe2c" r="45"/><path d="m301 346c0-24.814-20.186-45-45-45v90c24.814 0 45-20.186 45-45z" fill="#ff9100"/></g></g></svg>