<?xml version="1.0" standalone="no"?>
<svg xmlns="http://www.w3.org/2000/svg" version="1.1" xmlns:xlink="http://www.w3.org/1999/xlink" width="512" height="512" x="0" y="0" viewBox="0 0 462.166 462.166" style="enable-background:new 0 0 512 512" xml:space="preserve" class=""><g transform="matrix(-1,0,0,1,462.16822810890153,0)"><path fill="#fff8d6" d="M385.492 328.616c38.69-68.4 28.91-156.78-29.36-215.05s-146.65-68.05-215.05-29.36C.17-23.879-34.867 11.264 73.172 152.116c-38.69 68.4-28.91 156.78 29.36 215.05 58.27 58.271 146.65 68.05 215.05 29.36 140.911 108.084 175.949 72.941 67.91-67.91z" opacity="1" data-original="#fff8d6"/><path fill="#ffe773" d="M73.172 152.116c-38.69 68.4-28.91 156.78 29.36 215.05 58.27 58.271 146.65 68.05 215.05 29.36-81.51-62.481-179.276-159.592-244.41-244.41z" opacity="1" data-original="#ffe773"/><path fill="#fff0a6" d="M317.582 396.526c-34.226-26.235-69.006-56.788-100.022-86.262-5.002-4.753-2.04-13.252 4.84-13.772 82.605-6.25 141.08-77.366 135.889-158.458-.506-7.904 9.568-11.729 14.328-5.399 43.75 58.173 47.229 135.245 12.875 195.982 108.085 140.91 72.942 175.947-67.91 67.909z" opacity="1" data-original="#fff0a6"/><path fill="#42434d" d="M322.052 147.646c47.06 47.05 50.88 120.98 11.45 172.39-5.93 7.74-17.02 9.15-24.87 3.36a772.711 772.711 0 0 1-162.34-162.35c-5.79-7.84-4.36-18.92 3.37-24.85 51.42-39.43 125.34-35.61 172.39 11.45z" opacity="1" data-original="#42434d"/><g fill="#fff0a6"><path d="M207.752 17.357a8 8 0 0 1-.73-15.967c13.469-1.252 27.547-1.356 41.27-.29a7.998 7.998 0 0 1 7.356 8.595c-.341 4.405-4.19 7.72-8.595 7.356-21.936-1.704-37.717.306-39.301.306zM160.12 26.868a8.003 8.003 0 0 1-7.632-5.609 7.999 7.999 0 0 1 5.241-10.026 238.527 238.527 0 0 1 12.73-3.592c4.283-1.079 8.635 1.511 9.718 5.794s-1.511 8.634-5.794 9.718c-11.618 2.939-11.857 3.715-14.263 3.715zM20.528 349.598a7.999 7.999 0 0 1-7.203-4.51A240.232 240.232 0 0 1 .372 312.54a8 8 0 0 1 15.26-4.81 224.206 224.206 0 0 0 12.088 30.374c2.592 5.343-1.346 11.494-7.192 11.494zM84.228 429.396c-3.236 0-4.874-1.643-7.147-3.497-3.424-2.793-3.941-7.83-1.151-11.255a7.998 7.998 0 0 1 11.255-1.151s1.487 1.215 2.006 1.624c5.966 4.712 2.578 14.279-4.963 14.279zM135.073 461.15a241.655 241.655 0 0 1-28.922-14.761 8 8 0 0 1-2.753-10.974 7.997 7.997 0 0 1 10.974-2.753 225.307 225.307 0 0 0 26.998 13.778 8 8 0 0 1-6.297 14.71zM454.156 190.898a8.003 8.003 0 0 1-7.746-6.025 223.178 223.178 0 0 0-13.997-39.153 8 8 0 0 1 3.865-10.633 7.999 7.999 0 0 1 10.633 3.865 239.257 239.257 0 0 1 15.003 41.968c1.293 5.069-2.548 9.978-7.758 9.978zM420.749 117.237a7.993 7.993 0 0 1-6.616-3.493c-.933-1.367-1.9-2.742-2.959-4.204a8 8 0 0 1 12.957-9.387 198.628 198.628 0 0 1 3.221 4.575c3.651 5.354-.271 12.509-6.603 12.509z" fill="#fff0a6" opacity="1" data-original="#fff0a6"/></g><path fill="#585966" d="M303.893 174.988c-40.481-18.786-88.462-16.266-123.502 6.033-7.181 4.57-16.666 2.807-21.901-3.905a767.354 767.354 0 0 1-12.198-16.07c-5.79-7.84-4.36-18.92 3.37-24.85 51.222-39.278 125.6-35.959 173.029 12.094 12.945 13.114-2.083 34.455-18.798 26.698z" opacity="1" data-original="#585966"/><path fill="#42434d" d="M276.062 362.925c-46.8 17.81-101.75 7.87-139.45-29.84-37.71-37.7-47.65-92.66-29.83-139.45 49.277 58.08 111.102 119.908 169.28 169.29z" opacity="1" data-original="#42434d"/></g></svg>